<?xml version="1.0" encoding="UTF-8" standalone="no"?><!DOCTYPE svg PUBLIC "-//W3C//DTD SVG 1.1//EN" "http://www.w3.org/Graphics/SVG/1.1/DTD/svg11.dtd"><svg width="100%" height="100%" viewBox="0 0 123 134" version="1.1" xmlns="http://www.w3.org/2000/svg" xmlns:xlink="http://www.w3.org/1999/xlink" xml:space="preserve" xmlns:serif="http://www.serif.com/" style="fill-rule:evenodd;clip-rule:evenodd;stroke-linejoin:round;stroke-miterlimit:2;"><path id="Trash-Icon" serif:id="Trash Icon" d="M113.89,44.443l-8.334,0l-0,80.557c-0,4.603 -3.731,8.333 -8.333,8.333l-72.223,0c-4.602,0 -8.333,-3.73 -8.333,-8.333l-0,-80.557l-8.334,0c-4.602,0 -8.333,-3.73 -8.333,-8.332c0,-4.603 3.731,-8.333 8.333,-8.333l25.001,-0c-0,-15.341 12.436,-27.778 27.778,-27.778c15.341,0 27.777,12.437 27.777,27.778l25.001,-0c4.602,-0 8.333,3.73 8.333,8.333c-0,4.602 -3.731,8.332 -8.333,8.332Zm-58.334,72.223l11.111,0l-0,-66.666l-11.111,0l-0,66.666Zm-22.222,-66.666l-0,66.666l11.11,0l0,-66.666l-11.11,0Zm27.778,-38.888c-9.206,0 -16.668,7.46 -16.668,16.666l33.334,-0c0,-9.206 -7.462,-16.666 -16.666,-16.666Zm27.777,38.888l-11.111,0l0,66.666l11.111,0l0,-66.666Z" style="fill:#e9315c;"/></svg>